# xmcd
#
# Track frame offsets: 
#        150
#        14265
#        29113
#        44470
#        60148
#        77488
#        91538
#        107935
#        121930
#        138718
#
# Disc length: 2034 seconds
#
# Revision: 2
# Processed by: cddbd v1.5.1PL0 Copyright (c) Steve Scherf et al.
# Submitted via: ExactAudioCopy v0.95a5
#
DISCID=7907f00a
DTITLE=Various Artist - Volume 3 Number 1 Hits of the 80's
DYEAR=1900
DGENRE=
TTITLE0=George Strait - Ocean Front Property
TTITLE1=Reba McEntire - The Last One to Know
TTITLE2=Lee Greenwood - Mornin' Ride
TTITLE3=The Bellamy Brothers - Kids of The Baby Boom
TTITLE4=Steve Wariner - The Weekend
TTITLE5=George Strait - Am I Blue
TTITLE6=Reba McEntire - Love Will Find Its Way to You
TTITLE7=Lee Greenwood - Don't Underestimate My Love for You
TTITLE8=Waylon Jennings - Rose In Paradise
TTITLE9=Steve Wariner - Lynda
EXTD=
EXTT0=
EXTT1=
EXTT2=
EXTT3=
EXTT4=
EXTT5=
EXTT6=
EXTT7=
EXTT8=
EXTT9=
PLAYORDER=
